<svg width="105" height="105" viewBox="0 0 105 105" fill="none" xmlns="http://www.w3.org/2000/svg">
<g clip-path="url(#clip0_681_77867)">
<path d="M0 52.362C0 23.4433 23.4433 0 52.362 0C81.2808 0 104.724 23.4433 104.724 52.362C104.724 81.2808 81.2808 104.724 52.362 104.724C23.4433 104.724 0 81.2808 0 52.362Z" fill="white"/>
<path d="M74.1753 54.0095C74.1821 54.0095 74.1821 54.0095 74.1753 54.0095C75.6861 50.7545 76.7781 47.67 77.1971 45.0837C77.7327 41.7809 77.2177 39.1742 75.6587 37.3317C73.7907 35.1207 70.8787 34.5065 67.9737 34.4861C65.8378 34.4861 63.338 34.8409 60.6664 35.4414C58.7847 28.5082 54.925 18.6407 47.6727 18.6407C39.3009 18.6407 32.653 32.8415 28.7658 45.3362C27.3374 49.9288 24.9199 59.0593 24.9199 63.5427C24.9199 74.1267 33.6557 82.7386 44.3899 82.7386C56.5458 82.7386 79.7999 75.2595 79.7999 63.5427C79.7999 59.9259 77.5885 56.7255 74.1753 54.0095ZM67.96 38.7306C69.4709 38.7442 71.5174 38.9353 72.4446 40.1227C73.2893 41.2009 73.2069 43.0502 72.9871 44.4082C72.6025 46.7966 71.6067 49.417 70.6315 51.6211C68.3308 50.27 65.7623 49.0758 63.077 48.0795C62.7268 45.2748 62.2598 42.3814 61.6554 39.5631C63.9904 39.0377 66.1469 38.7306 67.96 38.7306ZM63.5646 52.7949C65.3777 53.5523 67.0946 54.3848 68.7841 55.3948C67.3487 58.1107 65.6661 60.8745 63.8943 63.4812C64.0042 60.7312 63.9217 56.978 63.5646 52.7949ZM58.5924 46.6055C54.6846 45.4864 50.7838 44.7562 47.3911 44.4764C50.6945 42.9956 54.197 41.6649 57.5416 40.6481C57.9537 42.6066 58.3039 44.6129 58.5924 46.6055ZM35.7847 38.1164C39.6924 28.5765 44.1496 22.8853 47.7002 22.8853C52.2535 22.8853 55.3577 32.1591 56.5527 36.5264C52.1299 37.8435 47.4735 39.686 43.2705 41.7195C39.143 43.7053 35.0017 46.3598 32.1997 48.5913C33.0788 45.1929 34.9331 40.2114 35.7847 38.1164ZM44.2869 78.494C35.9495 78.4394 29.1916 71.7519 29.1916 63.5427C29.1916 55.2924 36.0113 48.5844 44.3968 48.5844C48.7097 48.5844 54.094 49.5603 59.1624 51.1776C59.7187 56.6504 59.8286 61.666 59.547 64.8529C58.8328 72.8711 51.7041 78.4736 44.2869 78.494ZM64.4849 73.8947C62.8504 74.618 61.1197 75.2731 59.341 75.8463C63.6402 71.4721 68.5987 64.5935 72.2317 57.8787C74.3675 59.7553 75.5282 61.6933 75.5282 63.5427C75.5351 67.0161 71.5037 70.7897 64.4849 73.8947Z" fill="#0C0E19"/>
</g>
<defs>
<clipPath id="clip0_681_77867">
<rect width="105" height="105" fill="white"/>
</clipPath>
</defs>
</svg>

